<svg width="89" height="60" viewBox="0 0 89 60" fill="none" xmlns="http://www.w3.org/2000/svg">
<path fill-rule="evenodd" clip-rule="evenodd" d="M66.75 48.75H81.5833V22.5H66.75V48.75ZM63.0417 15H85.2917C86.2752 15 87.2184 15.3951 87.9139 16.0984C88.6093 16.8016 89 17.7554 89 18.75V56.25C89 57.2446 88.6093 58.1984 87.9139 58.9017C87.2184 59.6049 86.2752 60 85.2917 60H63.0417C62.0582 60 61.1149 59.6049 60.4195 58.9017C59.724 58.1984 59.3333 57.2446 59.3333 56.25V18.75C59.3333 17.7554 59.724 16.8016 60.4195 16.0984C61.1149 15.3951 62.0582 15 63.0417 15Z" fill="#0B96C2"/>
<path d="M14.8333 7.5H81.5833V0H14.8333C12.8663 0 10.9799 0.790176 9.58896 2.1967C8.19806 3.60322 7.41667 5.51088 7.41667 7.5V48.75H0V60H51.9167V48.75H14.8333V7.5Z" fill="white"/>
</svg>
