<svg width="88" height="89" viewBox="0 0 88 89" fill="none" xmlns="http://www.w3.org/2000/svg">
<path d="M83.7141 21.1528V82.141C83.7141 82.8992 83.4177 83.6264 82.8901 84.1625C82.3625 84.6986 81.6468 84.9998 80.9007 84.9998H20.8805C20.1343 84.9998 19.4187 84.6986 18.8911 84.1625C18.3635 83.6264 18.0671 82.8992 18.0671 82.141V21.1528C18.0671 20.3946 18.3635 19.6674 18.8911 19.1313C19.4187 18.5951 20.1343 18.2939 20.8805 18.2939H80.9007C81.6468 18.2939 82.3625 18.5951 82.8901 19.1313C83.4177 19.6674 83.7141 20.3946 83.7141 21.1528V21.1528Z" stroke="#0B96C2" stroke-width="7.14706" stroke-linecap="round" stroke-linejoin="round"/>
<path d="M69.6471 4H6.81345C6.06727 4 5.35166 4.3012 4.82404 4.83733C4.29642 5.37346 4 6.10062 4 6.85882V70.7059M45.775 39.9497C45.3479 39.689 44.8602 39.5481 44.362 39.5417C43.8637 39.5352 43.3727 39.6633 42.9392 39.9129C42.5056 40.1625 42.1451 40.5246 41.8945 40.9622C41.6438 41.3998 41.512 41.8972 41.5126 42.4035V60.8906C41.512 61.3969 41.6438 61.8943 41.8945 62.3319C42.1451 62.7695 42.5056 63.1316 42.9392 63.3812C43.3727 63.6308 43.8637 63.7589 44.362 63.7525C44.8602 63.746 45.3479 63.6052 45.775 63.3444L60.9348 54.1009C61.3524 53.8472 61.6982 53.4877 61.9383 53.0576C62.1784 52.6275 62.3047 52.1415 62.3047 51.6471C62.3047 51.1526 62.1784 50.6666 61.9383 50.2365C61.6982 49.8064 61.3524 49.4469 60.9348 49.1932L45.775 39.9497V39.9497Z" stroke="white" stroke-width="7.14706" stroke-linecap="round" stroke-linejoin="round"/>
</svg>
