<svg width="70" height="70" viewBox="0 0 70 70" fill="none" xmlns="http://www.w3.org/2000/svg">
<g id="Vector">
<path fill-rule="evenodd" clip-rule="evenodd" d="M0 70L4.375 50.3125L44.8437 9.84375L60.1562 25.1562L19.6875 65.625L0 70ZM18.2919 55.4794L48.9169 24.8544L45.1456 21.0831L14.5206 51.7081L18.2919 55.4794Z" fill="white"/>
<path d="M59.0625 0C61.0937 0 63.0848 0.565629 64.8127 1.63351C66.5405 2.70138 67.9369 4.22932 68.8453 6.0461C69.7537 7.86288 70.1382 9.89673 69.9558 11.9197C69.7734 13.9428 69.0312 15.875 67.8125 17.5L63.4375 21.875L48.125 6.5625L52.5 2.1875C54.3287 0.81375 56.5994 0 59.0625 0Z" fill="#0B96C2"/>
</g>
</svg>
