<svg width="70" height="70" viewBox="0 0 70 70" fill="none" xmlns="http://www.w3.org/2000/svg">
<g id="Vector">
<path fill-rule="evenodd" clip-rule="evenodd" d="M46.984 2.10353C43.1431 0.706671 39.0869 -0.00529426 35 2.96381e-05C15.6695 2.96381e-05 0 15.6695 0 35C0 54.3305 15.6695 70 35 70C54.3305 70 70 54.3305 70 35C70.004 30.9129 69.2909 26.8567 67.893 23.016L62.958 27.958C62.7375 28.175 62.503 28.378 62.258 28.56C63.6583 34.4891 63.0866 40.7131 60.6297 46.2878C58.1728 51.8626 53.9648 56.484 48.6439 59.451C43.323 62.4179 37.1796 63.5685 31.1457 62.7282C25.1118 61.8879 19.5165 59.1026 15.2087 54.7948C10.9009 50.487 8.11556 44.8917 7.27529 38.8578C6.43501 32.8239 7.58561 26.6805 10.5525 21.3596C13.5195 16.0387 18.1409 11.8307 23.7157 9.37378C29.2904 6.91689 35.5144 6.34524 41.4435 7.74553C41.622 7.50053 41.825 7.26253 42.042 7.04553L46.984 2.10353ZM40.25 14.665C38.57 14.231 36.813 14 35 14C30.6206 14.0011 26.3511 15.3714 22.789 17.919C19.2268 20.4667 16.5503 24.0642 15.1339 28.2083C13.7176 32.3523 13.6322 36.8355 14.8898 41.0304C16.1474 45.2254 18.6851 48.9222 22.1476 51.6036C25.6102 54.285 29.8244 55.8168 34.2006 55.9846C38.5768 56.1524 42.896 54.9479 46.5537 52.5395C50.2115 50.1312 53.0248 46.6396 54.5999 42.5532C56.1751 38.4669 56.4333 33.9904 55.3385 29.75H50.148L48.699 31.199L48.524 31.3705C49.0391 33.295 49.1375 35.3073 48.8126 37.2729C48.4878 39.2385 47.7471 41.1121 46.6403 42.7685C45.5334 44.425 44.0857 45.8261 42.394 46.8783C40.7022 47.9305 38.8054 48.6095 36.8303 48.8699C34.8551 49.1304 32.8471 48.9663 30.9405 48.3886C29.0338 47.8109 27.2724 46.833 25.774 45.5201C24.2755 44.2072 23.0745 42.5896 22.2513 40.7754C21.428 38.9613 21.0014 36.9923 21 35C21.0031 32.853 21.4993 30.7354 22.4504 28.8105C23.4015 26.8857 24.7821 25.205 26.4856 23.8982C28.1891 22.5914 30.17 21.6934 32.2756 21.2734C34.3811 20.8535 36.555 20.9228 38.6295 21.476C38.6856 21.4167 38.7428 21.3584 38.801 21.301L40.25 19.852V14.665Z" fill="white"/>
<path d="M69.23 16.73C69.5966 16.3629 69.8463 15.8954 69.9473 15.3865C70.0484 14.8776 69.9965 14.3502 69.798 13.8708C69.5995 13.3914 69.2634 12.9816 68.8321 12.6932C68.4009 12.4047 67.8938 12.2505 67.375 12.25H57.75V2.62503C57.7495 2.10619 57.5953 1.59912 57.3069 1.16787C57.0184 0.736611 56.6086 0.400515 56.1292 0.202025C55.6498 0.00353545 55.1224 -0.0484443 54.6135 0.052651C54.1046 0.153746 53.6371 0.403382 53.27 0.770029L44.52 9.52003C44.0276 10.0118 43.7506 10.6791 43.75 11.375V21.301L36.813 28.238C35.7759 27.9621 34.6892 27.9279 33.6368 28.1382C32.5844 28.3485 31.5944 28.7976 30.7429 29.4509C29.8915 30.1042 29.2014 30.9442 28.7258 31.9063C28.2503 32.8684 28.0019 33.9268 28 35C28.0004 35.9962 28.2135 36.9808 28.625 37.8881C29.0365 38.7953 29.6368 39.6043 30.386 40.2609C31.1352 40.9176 32.0158 41.4067 32.9692 41.6958C33.9225 41.9848 34.9266 42.067 35.9143 41.9368C36.9019 41.8067 37.8504 41.4673 38.6964 40.9412C39.5424 40.4152 40.2663 39.7146 40.8199 38.8864C41.3734 38.0581 41.7438 37.1213 41.9063 36.1384C42.0687 35.1556 42.0195 34.1493 41.762 33.187L48.699 26.25H58.625C59.3209 26.2494 59.9882 25.9724 60.48 25.48L69.23 16.73Z" fill="#0B96C2"/>
</g>
</svg>
