<svg width="89" height="85" viewBox="0 0 89 85" fill="none" xmlns="http://www.w3.org/2000/svg">
<path d="M77.4981 53.8889C77.64 53.5986 77.7134 53.2787 77.7124 52.9545C77.7114 52.6304 77.6362 52.3109 77.4926 52.0214L74.841 48.0952C74.7911 48.0221 74.7635 47.9377 74.7635 47.8421C74.7635 47.7464 74.7911 47.6621 74.841 47.5889L77.4981 43.6514C77.64 43.3611 77.7134 43.0412 77.7124 42.717C77.7114 42.3929 77.6362 42.0734 77.4926 41.7839C77.3824 41.4791 77.2086 41.2021 76.9831 40.972C76.7575 40.7419 76.4857 40.5641 76.1861 40.4508L71.6302 38.7577C71.5461 38.7285 71.4711 38.6773 71.4127 38.6091C71.3544 38.5409 71.3148 38.4583 71.2981 38.3696V33.6389C71.2805 33.3043 71.1869 32.9782 71.0246 32.6865C70.8623 32.3947 70.6357 32.145 70.3626 31.9571C69.9859 31.6955 69.54 31.5562 69.0838 31.5577H68.1428L63.4374 32.7952C63.3113 32.8468 63.1704 32.8468 63.0444 32.7952L60.0053 29.1389C59.7833 28.8938 59.5138 28.6981 59.2136 28.5643C58.9135 28.4304 58.5893 28.3613 58.2615 28.3613C57.9337 28.3613 57.6095 28.4304 57.3094 28.5643C57.0092 28.6981 56.7397 28.8938 56.5178 29.1389L53.4731 32.7952C53.347 32.8468 53.2062 32.8468 53.0801 32.7952H53.0856L48.1035 31.5014H47.5056C47.0442 31.5 46.5931 31.6392 46.2102 31.9008C45.9395 32.0894 45.7148 32.3386 45.5536 32.6292C45.3924 32.9198 45.2989 33.244 45.2803 33.5771V38.3077C45.2644 38.3966 45.2259 38.4797 45.1686 38.5488C45.1113 38.6179 45.0372 38.6705 44.9536 38.7014L40.4088 40.3889C39.889 40.4753 39.416 40.7457 39.0736 41.1523C38.7311 41.559 38.5413 42.0756 38.5378 42.6108C38.5378 42.9483 38.6153 43.2689 38.7536 43.5502L41.4053 47.4764C41.4551 47.5496 41.4828 47.6339 41.4828 47.7296C41.4828 47.8252 41.4551 47.9096 41.4053 47.9827L38.7481 51.9202C38.6062 52.2105 38.5329 52.5305 38.5338 52.8546C38.5348 53.1788 38.61 53.4982 38.7536 53.7877C38.8638 54.0925 39.0376 54.3695 39.2632 54.5997C39.4887 54.8298 39.7605 55.0076 40.0601 55.1208L44.616 56.8139C44.7001 56.8431 44.7752 56.8944 44.8335 56.9625C44.8918 57.0307 44.9314 57.1133 44.9481 57.2021V61.9327C44.9657 62.2674 45.0593 62.5934 45.2216 62.8852C45.3839 63.177 45.6105 63.4266 45.8836 63.6146C46.2664 63.8762 46.7176 64.0153 47.179 64.0139H48.109L49.8251 63.6202V84.3764L58.2947 73.1264L66.4322 84.3764V63.6202L68.1483 64.0702H68.8015C69.2629 64.0716 69.7141 63.9325 70.0969 63.6708C70.3676 63.4822 70.5923 63.2331 70.7535 62.9425C70.9147 62.6519 71.0082 62.3276 71.0269 61.9946V57.2639C71.0427 57.1751 71.0812 57.0919 71.1385 57.0229C71.1958 56.9538 71.2699 56.9011 71.3535 56.8702L75.8983 55.1827C76.2451 55.1131 76.5709 54.9612 76.8489 54.7393C77.127 54.5173 77.3494 54.2318 77.4981 53.9058V53.8889Z" fill="#0B96C2"/>
<path d="M2 0C0.895429 0 0 0.89543 0 2V65.5C0 66.6046 0.895431 67.5 2 67.5H43.6277C43.7827 67.5 43.8291 67.2891 43.6883 67.2241V67.2241C43.6806 67.2205 43.6733 67.2163 43.6664 67.2115C42.8826 66.6637 42.2319 65.9416 41.7638 65.1C41.2937 64.2547 41.0202 63.3112 40.9643 62.3419V62.3419C40.9643 62.084 40.7553 61.875 40.4974 61.875H7.53571C6.43114 61.875 5.53571 60.9796 5.53571 59.875V7.625C5.53571 6.52043 6.43114 5.625 7.53571 5.625H81.0357C82.1403 5.625 83.0357 6.52043 83.0357 7.625V59.875C83.0357 60.9796 82.1403 61.875 81.0357 61.875H75.5696C75.3211 61.875 75.1196 62.0765 75.1196 62.325V62.325C75.0659 63.2931 74.7957 64.236 74.3295 65.082C73.8633 65.9281 73.2134 66.655 72.4293 67.2075V67.2075C72.2948 67.2921 72.3547 67.5 72.5136 67.5H86.5714C87.676 67.5 88.5714 66.6046 88.5714 65.5V2C88.5714 0.895432 87.676 0 86.5714 0H2Z" fill="white"/>
<path d="M41.1304 33.2437C41.1485 32.2367 41.4019 31.2485 41.8696 30.3605C42.336 29.4751 43.0022 28.7146 43.8135 28.1414C43.8183 28.138 43.8237 28.1355 43.8294 28.134V28.134C43.8872 28.1191 43.8848 28.125 43.8251 28.125H18.6072C17.5026 28.125 16.6072 29.0204 16.6072 30.125V31.75C16.6072 32.8546 17.5026 33.75 18.6072 33.75H40.6241C40.9037 33.75 41.1304 33.5233 41.1304 33.2437V33.2437ZM34.947 40.2919C35.0319 39.94 34.7886 39.375 34.4267 39.375H18.6072C17.5026 39.375 16.6072 40.2704 16.6072 41.375V43C16.6072 44.1046 17.5026 45 18.6072 45H32.7753C33.8777 45 34.621 43.7762 34.5601 42.6754V42.6754C34.5152 41.8617 34.6473 41.0479 34.947 40.2919V40.2919ZM16.6072 18.875C16.6072 17.7704 17.5026 16.875 18.6072 16.875H69.9643C71.0689 16.875 71.9643 17.7704 71.9643 18.875V20.5C71.9643 21.6046 71.0689 22.5 69.9643 22.5H18.6072C17.5026 22.5 16.6072 21.6046 16.6072 20.5V18.875Z" fill="white"/>
</svg>
