<svg width="75" height="75" viewBox="0 0 75 75" fill="none" xmlns="http://www.w3.org/2000/svg">
<path id="Vector" d="M8.26397 5.13235C8.26397 4.3016 7.93399 3.50487 7.34663 2.91744C6.75927 2.33001 5.96264 2 5.13198 2C4.30133 2 3.5047 2.33001 2.91734 2.91744C2.32998 3.50487 2 4.3016 2 5.13235V65.6912C2 69.7256 5.27397 73 9.30796 73H69.8597C70.6903 73 71.4869 72.67 72.0743 72.0826C72.6617 71.4951 72.9916 70.6984 72.9916 69.8676C72.9916 69.0369 72.6617 68.2402 72.0743 67.6527C71.4869 67.0653 70.6903 66.7353 69.8597 66.7353H9.30796C9.03108 66.7353 8.76553 66.6253 8.56975 66.4295C8.37396 66.2337 8.26397 65.9681 8.26397 65.6912V5.13235ZM45.8478 15.5735C45.8478 14.7428 46.1778 13.9461 46.7651 13.3586C47.3525 12.7712 48.1491 12.4412 48.9798 12.4412H69.868C70.6987 12.4412 71.4953 12.7712 72.0827 13.3586C72.67 13.9461 73 14.7428 73 15.5735V36.4768C73 37.3075 72.67 38.1042 72.0827 38.6917C71.4953 39.2791 70.6987 39.6091 69.868 39.6091C69.0374 39.6091 68.2407 39.2791 67.6534 38.6917C67.066 38.1042 66.736 37.3075 66.736 36.4768V23.1288L44.9291 44.9341C44.3418 45.5207 43.5458 45.8502 42.7158 45.8502C41.8858 45.8502 41.0898 45.5207 40.5025 44.9341L32.2758 36.7065L18.8292 50.1547C18.2355 50.708 17.4502 51.0092 16.6388 50.9949C15.8274 50.9806 15.0532 50.6519 14.4794 50.078C13.9056 49.504 13.5769 48.7298 13.5626 47.9183C13.5482 47.1068 13.8494 46.3214 14.4027 45.7276L30.0626 30.0659C30.6498 29.4793 31.4459 29.1498 32.2758 29.1498C33.1058 29.1498 33.9019 29.4793 34.4891 30.0659L42.7158 38.2935L62.3011 18.7059H48.9798C48.1491 18.7059 47.3525 18.3759 46.7651 17.7884C46.1778 17.201 45.8478 16.4043 45.8478 15.5735V15.5735Z" fill="white" stroke="#0B96C2" stroke-width="2.5"/>
</svg>
