<svg width="79" height="76" viewBox="0 0 79 76" fill="none" xmlns="http://www.w3.org/2000/svg">
<g id="Vector">
<path d="M39.5 43.7545V63.8295L53.9905 72.5165C55.1259 73.1987 56.4255 73.559 57.75 73.559V54.7045L39.5 43.7545Z" fill="white"/>
<path d="M6.5405 41.6375C5.46287 42.285 4.5707 43.1997 3.95041 44.2932C3.33013 45.3867 3.00276 46.6218 3 47.879V59.705C3.00276 60.9622 3.33013 62.1973 3.95041 63.2908C4.5707 64.3843 5.46287 65.2991 6.5405 65.9465L17.4905 72.5165C18.6259 73.1987 19.9255 73.559 21.25 73.559V54.7045L39.5 43.7545L21.25 32.8045L6.5405 41.6375Z" fill="white"/>
<path d="M21.25 32.8045L39.5 43.7545L57.75 32.8045V16.854C57.7472 15.5968 57.4199 14.3617 56.7996 13.2682C56.1793 12.1747 55.2871 11.26 54.2095 10.6125L43.2595 4.04251C42.1241 3.36037 40.8245 3 39.5 3C38.1755 3 36.8759 3.36037 35.7405 4.04251L24.7905 10.6125C23.7129 11.26 22.8207 12.1747 22.2004 13.2682C21.5801 14.3617 21.2528 15.5968 21.25 16.854V32.8045Z" fill="white"/>
<path d="M21.25 73.559C19.9255 73.559 18.6259 73.1987 17.4905 72.5165L6.5405 65.9465C5.46287 65.2991 4.5707 64.3843 3.95041 63.2908C3.33013 62.1973 3.00276 60.9622 3 59.705V47.879C3.00276 46.6218 3.33013 45.3867 3.95041 44.2932C4.5707 43.1997 5.46287 42.285 6.5405 41.6375L21.25 32.8045M21.25 73.559C22.5745 73.559 23.8741 73.1987 25.0095 72.5165L39.5 63.8295M21.25 73.559V54.7045M39.5 63.8295V43.7545M39.5 63.8295L53.9905 72.5165C55.1259 73.1987 56.4255 73.559 57.75 73.559M39.5 43.7545L21.25 32.8045M39.5 43.7545L21.25 54.7045M39.5 43.7545L57.75 32.8045M39.5 43.7545L57.75 54.7045M39.5 43.7545V23.6795M21.25 32.8045V16.854C21.2528 15.5968 21.5801 14.3617 22.2004 13.2682C22.8207 12.1747 23.7129 11.26 24.7905 10.6125L35.7405 4.04251C36.8759 3.36037 38.1755 3 39.5 3C40.8245 3 42.1241 3.36037 43.2595 4.04251L54.2095 10.6125C55.2871 11.26 56.1793 12.1747 56.7996 13.2682C57.4199 14.3617 57.7472 15.5968 57.75 16.854V32.8045M21.25 54.7045L3.949 44.302M21.25 54.7045V73.575M57.75 73.559C59.0745 73.559 60.3741 73.1987 61.5095 72.5165L72.4595 65.9465C73.5371 65.2991 74.4293 64.3843 75.0496 63.2908C75.6699 62.1973 75.9972 60.9622 76 59.705V47.879C75.9972 46.6218 75.6699 45.3867 75.0496 44.2932C74.4293 43.1997 73.5371 42.285 72.4595 41.6375L57.75 32.8045M57.75 73.559V54.7045M57.75 54.7045L75.051 44.302M57.75 54.7045V73.575M39.5 23.6795L22.199 13.277M39.5 23.6795L56.801 13.277" stroke="#0B96C2" stroke-width="4.17143" stroke-linecap="round" stroke-linejoin="round"/>
</g>
</svg>
