<svg width="89" height="90" viewBox="0 0 89 90" fill="none" xmlns="http://www.w3.org/2000/svg">
<path d="M80.1802 70.5946C85.8117 65.4946 89.0004 58.6969 89.0004 51.6426C89.0004 44.1457 85.5465 37.1344 79.2748 31.8991C73.1708 26.8055 65.0913 24 56.5236 24C47.9559 24 39.8764 26.8055 33.7734 31.8995C27.5016 37.1344 24.0478 44.1457 24.0478 51.6426C24.0478 59.1396 27.5016 66.1509 33.7734 71.3862C39.8764 76.4801 47.9559 79.2855 56.5236 79.2855C57.6652 79.2855 58.8139 79.2343 59.9529 79.1325L61.8989 80.8464C68.6029 86.7494 77.1763 89.999 86.0471 89.9993H88.9995V83.6137L88.1348 82.7353C84.7237 79.259 82.0207 75.1334 80.1802 70.5946V70.5946ZM65.7661 76.312L61.8615 72.8731L60.5595 73.0352C59.2204 73.2016 57.8726 73.2851 56.5236 73.2852C41.8726 73.2852 29.9525 63.5763 29.9525 51.6426C29.9525 39.709 41.8726 29.9999 56.5236 29.9999C71.1746 29.9999 83.0948 39.7088 83.0948 51.6426C83.0948 57.5882 80.1756 63.1389 74.8751 67.2721L73.1747 68.5979L73.9593 70.8545C75.5671 75.4631 77.9305 79.7622 80.9493 83.57C75.3274 82.6164 70.0735 80.1049 65.7661 76.312V76.312Z" fill="#0B96C2"/>
<path d="M8.58181 56.5262C11.3454 52.9714 13.5153 48.9793 15.0046 44.7095L15.7833 42.4642L14.0844 41.1393C9.08611 37.242 6.33341 32.0112 6.33341 26.4104C6.33341 15.156 17.5909 5.99994 31.4284 5.99994C41.6081 5.99994 50.3912 10.9555 54.3233 18.0561C55.0535 18.0201 55.7868 17.9998 56.5234 17.9998C58.0029 17.9998 59.4688 18.0727 60.9213 18.2186C59.4017 14.2184 56.7627 10.5666 53.1344 7.53855C47.3106 2.67728 39.6027 0 31.4284 0C23.2541 0 15.5462 2.67728 9.72197 7.53855C3.72907 12.5408 0.428711 19.2429 0.428711 26.4104C0.428711 33.1228 3.44601 39.5906 8.77833 44.4558C7.03817 48.711 4.49549 52.5792 1.29357 55.8424L0.428711 56.721V62.9993H3.38106C8.84053 62.9986 14.2249 61.7068 19.108 59.2259C18.5726 57.1637 18.2589 55.0486 18.1723 52.9176C15.2085 54.6826 11.9622 55.9041 8.58181 56.5262V56.5262Z" fill="white"/>
</svg>
